<mxfile host="app.diagrams.net" modified="2023-05-31T08:41:47.343Z" agent="Mozilla/5.0 (Macintosh; Intel Mac OS X 10_15_7) AppleWebKit/537.36 (KHTML, like Gecko) Chrome/113.0.0.0 Safari/537.36" version="21.3.0" etag="3IbKGVTmTSCu9DCup3OM" type="github">
  <diagram name="ページ1" id="rxm7QnSzYuGfee6C8Hp6">
    <mxGraphModel>
      <root>
        <mxCell id="0" />
        <mxCell id="1" parent="0" />
      </root>
    </mxGraphModel>
  </diagram>
</mxfile>
